# xmcd
#
# Track frame offsets: 
#        150
#        24071
#        40606
#        57525
#        76850
#        94364
#        117069
#        131247
#        151901
#        169322
#        191155
#
# Disc length: 2819 seconds
#
# Revision: 0
# Processed by: cddbd v1.5.2PL0 Copyright (c) Steve Scherf et al.
# Submitted via: ExactAudioCopyFreeDBPlugin 1.0
#
DISCID=890b010b
DTITLE=ewa firsowicz - songs für einen nachmittag
DYEAR=2008
DGENRE=Elektro Chanson
TTITLE0=morgen
TTITLE1=die sehnsucht ist ein flug
TTITLE2=in bewegung
TTITLE3=frag dich nicht
TTITLE4=veränderung
TTITLE5=oriana fallaci
TTITLE6=[...]
TTITLE7=ich bin mein traum
TTITLE8=ist es das
TTITLE9=kennst du nicht auch
TTITLE10=der wind
EXTD=
EXTT0=
EXTT1=
EXTT2=
EXTT3=
EXTT4=
EXTT5=
EXTT6=
EXTT7=
EXTT8=
EXTT9=
EXTT10=
PLAYORDER=
